<svg width="20" height="20" viewBox="0 0 20 20" fill="none" xmlns="http://www.w3.org/2000/svg">
<path fill-rule="evenodd" clip-rule="evenodd" d="M6.52212 0.217391H5.21777V4.13043H6.52212V0.217391ZM19.5653 5.43486C19.5653 3.27375 17.8134 1.52182 15.6522 1.52182V2.82617C17.093 2.82617 18.2609 3.99412 18.2609 5.43486H1.30441C1.30441 3.99412 2.47236 2.82617 3.91311 2.82617V1.52182C1.75199 1.52182 6.36889e-05 3.27375 6.36889e-05 5.43486V15.8696C6.36889e-05 18.0308 1.75199 19.7827 3.91311 19.7827H15.6522C17.8134 19.7827 19.5653 18.0308 19.5653 15.8696V5.43486ZM7.82583 2.82617H11.7389V1.52182H7.82583V2.82617ZM1.30409 6.73913V15.8696C1.30409 17.3103 2.47205 18.4783 3.91279 18.4783H15.6519C17.0927 18.4783 18.2606 17.3103 18.2606 15.8696V6.73913H1.30409ZM13.0435 0.217391H14.3479V4.13043H13.0435V0.217391ZM6.52223 8.04356H2.60918V11.9566H6.52223V8.04356ZM7.82583 8.04356H11.7389V11.9566H7.82583V8.04356ZM6.52223 13.2609H2.60918V17.1739H6.52223V13.2609ZM7.82583 13.2609H11.7389V17.1739H7.82583V13.2609ZM16.9566 8.04356H13.0435V11.9566H16.9566V8.04356Z" fill="#572A13"/>
</svg>
