<svg width="257" height="100" viewBox="0 0 257 100" fill="none" xmlns="http://www.w3.org/2000/svg">
<path d="M6.24941 57.5204C6.24941 57.5204 85.6766 83.7484 166.615 93.421C247.553 103.094 259.3 96.6204 255.501 88.1021C251.702 79.5839 226.001 81.3341 226.001 81.3341C226.001 81.3341 247.284 56.6576 235.469 51.3884C223.655 46.1192 189.997 61.2596 189.997 61.2596C189.997 61.2596 200.883 -1.25401 160.72 0.579989C120.558 2.41399 111.693 44.0991 111.693 44.0991C111.693 44.0991 98.591 1.47373 83.1352 14.9074C67.6793 28.3411 74.2213 48.0525 73.1407 46.4575C71.5246 44.8656 39.2262 17.2969 14.1168 28.6514C-11.5252 40.5429 6.24941 57.5204 6.24941 57.5204Z" fill="white"/>
</svg>
