<svg width="471" height="306" viewBox="0 0 471 306" fill="none" xmlns="http://www.w3.org/2000/svg">
<path d="M54.1646 188.581C54.1646 188.581 108.596 198.621 177.258 202.208C246.44 205.522 299.334 189.79 299.334 189.79C299.334 189.79 318.926 195.479 343.51 193.572C368.094 191.664 376.339 182.032 376.339 182.032C376.339 182.032 419.2 178.862 448.776 162.381C478.352 145.901 464.795 125.092 442.347 121.563C419.774 118.431 398.219 141.343 398.219 141.343C398.219 141.343 397.251 131.884 386.424 130.243C375.2 128.478 356.177 146.078 356.177 146.078C356.177 146.078 368.718 126.888 351.187 118.791C333.656 110.694 303.608 137.056 303.608 137.056C303.608 137.056 347.091 97.0166 304.703 83.3291C262.315 69.6416 205.595 126.91 190.098 156.949C183.841 146.272 169.438 150.49 159.082 159.898C164.224 139.267 141.254 136.011 127.05 143.779C112.448 151.424 103.979 163.166 103.979 163.166C103.979 163.166 114.534 143.355 114.386 128.483C114.238 113.611 84.3647 107.324 64.9446 131.777C45.5245 156.229 47.5104 170.803 47.5104 170.803C47.5104 170.803 24.5913 149.248 9.46799 157.166C-5.25797 165.208 6.98332 186.04 54.1646 188.581Z" fill="white"/>
</svg>
