<svg width="356" height="250" viewBox="0 0 356 250" fill="none" xmlns="http://www.w3.org/2000/svg">
<path d="M313.905 162.44C313.905 162.44 309.797 149.479 328.478 154.847C347.237 160.658 358.847 180.05 350.191 190.247C341.535 200.445 308.254 199.937 289.98 184.004C270.692 198.361 247.111 196.14 225.55 189.912C203.911 183.241 186.91 169.364 186.91 169.364C186.91 169.364 183.936 180.839 147.306 176.817C111.039 172.275 93.4406 157.591 93.4406 157.591C93.4406 157.591 84.4219 168.309 49.728 152.083C15.0341 135.857 8.04561 122.036 11.6952 111.81C15.8638 101.949 40.9578 115.309 49.6819 126.086C30.1013 97.6087 21.5997 72.6492 42.3728 66.6981C62.7049 60.8249 92.2982 89.3579 108.223 120.306C102.892 102.998 103.171 94.2806 113.155 91.6042C123.581 88.8498 136.257 111.703 136.257 111.703C136.257 111.703 104.842 41.9748 150.513 30.2565C196.262 18.9805 222.955 87.7181 227.601 124.308C232.924 97.819 247.658 98.8657 259.184 110.06C270.71 121.255 271.816 142.958 271.816 142.958C271.816 142.958 275.466 132.733 290.435 135.107C305.404 137.481 313.437 159.786 313.905 162.44Z" fill="white"/>
</svg>
