<svg width="217" height="168" viewBox="0 0 217 168" fill="none" xmlns="http://www.w3.org/2000/svg">
<path d="M26.5072 94.506C26.5072 94.506 29.9267 87.3576 18.4594 89.0136C7.12907 90.9366 -1.09394 101.22 3.2708 107.755C7.63554 114.29 26.7979 116.452 38.6731 108.684C48.7115 118.386 62.5531 119.056 75.6958 117.048C88.8385 115.04 99.7167 108.289 99.7167 108.289C99.7167 108.289 100.594 115.261 121.952 115.455C143.246 115.851 154.521 108.559 154.521 108.559C154.521 108.559 158.958 115.563 180.111 108.778C201.466 102.059 206.561 94.5583 205.157 88.531C203.55 82.4386 188.095 88.1608 182.177 94.0583C195.725 79.0247 202.571 65.3991 191.035 60.3435C179.434 55.4898 160.169 69.5724 148.584 86.1306C152.987 76.6233 153.539 71.4495 147.807 69.1563C142.075 66.863 132.999 79.1009 132.999 79.1009C132.999 79.1009 156.589 41.2147 130.897 30.9277C105.341 20.9078 84.5676 58.3637 79.003 79.0917C78.0372 63.3946 69.5027 62.8739 61.9034 68.4522C54.3692 73.8285 52.0802 86.4699 52.0802 86.4699C52.0802 86.4699 50.7407 80.2406 41.9458 80.5279C33.1509 80.8153 26.963 93.092 26.5072 94.506Z" fill="white"/>
</svg>
