<svg width="150" height="87" viewBox="0 0 150 87" fill="none" xmlns="http://www.w3.org/2000/svg">
<path d="M138.587 62.8825C138.587 62.8825 92.8204 66.623 48.385 61.3348C3.9495 56.0467 -1.48253 51.0762 1.64417 47.0215C4.77086 42.9668 18.2582 47.2187 18.2582 47.2187C18.2582 47.2187 10.088 31.3042 17.0723 30.018C24.0566 28.7318 40.061 41.1556 40.061 41.1556C40.061 41.1556 42.3229 6.39441 63.5159 12.558C84.709 18.7217 84.0572 42.1082 84.0572 42.1082C84.0572 42.1082 96.5514 21.0559 103.064 30.2192C109.576 39.3824 103.541 49.0554 104.324 48.3438C105.391 47.7031 126.184 37.1628 138.116 46.463C150.263 56.1184 138.587 62.8825 138.587 62.8825Z" fill="white"/>
</svg>
