<svg width="35" height="35" viewBox="0 0 35 35" fill="none" xmlns="http://www.w3.org/2000/svg">
<circle cx="17.5" cy="17.5" r="16.5" fill="#2FBBE5" stroke="white" stroke-width="2"/>
<path d="M15.2055 22.6542C15.2055 22.1608 15.3788 21.7408 15.7255 21.3942C16.0855 21.0475 16.5122 20.8742 17.0055 20.8742C17.4988 20.8742 17.9188 21.0475 18.2655 21.3942C18.6122 21.7408 18.7855 22.1608 18.7855 22.6542C18.7855 23.1475 18.6122 23.5742 18.2655 23.9342C17.9188 24.2942 17.4988 24.4742 17.0055 24.4742C16.5122 24.4742 16.0855 24.2942 15.7255 23.9342C15.3788 23.5742 15.2055 23.1475 15.2055 22.6542ZM15.4255 18.1742L15.4255 16.8942C15.4255 16.5208 15.4788 16.2342 15.5855 16.0342C15.7188 15.7808 16.0655 15.5742 16.6255 15.4142C17.3455 15.2142 17.8055 15.0475 18.0055 14.9142C18.4588 14.6208 18.6855 14.1542 18.6855 13.5142C18.6855 13.1142 18.5455 12.7942 18.2655 12.5542C17.9988 12.3008 17.6588 12.1742 17.2455 12.1742C16.6055 12.1742 15.9588 12.5208 15.3055 13.2142C14.6522 13.9075 14.1188 14.2542 13.7055 14.2542C13.3055 14.2542 12.9788 14.1075 12.7255 13.8142C12.4855 13.5075 12.3655 13.1542 12.3655 12.7542C12.3655 12.0075 12.6788 11.3208 13.3055 10.6942C13.8388 10.1608 14.4988 9.74085 15.2855 9.43418C15.8855 9.20751 16.5388 9.09418 17.2455 9.09418C18.6188 9.09418 19.7788 9.50751 20.7255 10.3342C21.6988 11.2008 22.1855 12.3142 22.1855 13.6742C22.1855 14.7942 21.8588 15.7408 21.2055 16.5142C20.5655 17.2875 19.6922 17.7742 18.5855 17.9742C18.5855 19.3608 18.0522 20.0542 16.9855 20.0542C15.9455 20.0542 15.4255 19.4275 15.4255 18.1742Z" fill="white"/>
</svg>
