<svg width="607" height="111" viewBox="0 0 607 111" fill="none" xmlns="http://www.w3.org/2000/svg">
<g clip-path="url(#clip0)">
<path fill-rule="evenodd" clip-rule="evenodd" d="M543.408 -6.14928C542.606 -5.83211 541.854 -5.74871 541.286 -5.38142C543.374 -7.1345 544.844 -8.28652 545.412 -8.65381C544.51 -7.86909 544.076 -6.98412 543.408 -6.14928ZM579.922 -7.6139L535.022 -17.2383C529.176 -15.0683 525.067 -13.0149 535.54 -13.9486C536.81 -14.1655 540.117 -15.9017 540.752 -14.2986C539.699 -12.8125 538.563 -12.078 537.377 -11.1096C535.29 -9.3565 533.435 -7.55329 531.347 -5.80021C529.827 -4.41442 528.775 -2.92838 527.439 -1.25869C515.195 2.22971 503.435 4.59935 491.826 6.26768C498.14 0.774649 501.982 -2.3141 483.324 7.13488C490.256 1.04078 502.6 -16.6081 489.588 -4.97084C487.5 -3.21775 485.679 -0.429315 483.675 2.07522C483.341 2.49264 483.007 2.91007 482.773 2.85994C497.155 -30.0012 481.119 -3.11841 479.633 2.67584C485.663 -19.7497 482.155 -27.3481 476.325 4.41206C476.542 2.25796 475.256 -23.692 473.435 -14.0571C473.185 -12.8882 472.984 -11.9531 472.968 -10.7341C472.567 -8.8639 472.5 -7.41112 472.383 -5.72457C472.45 -3.75411 472.283 -1.83379 472.35 0.136665C472.383 1.12189 472.6 2.39102 472.35 3.5599C471.548 3.87706 470.98 0.821129 470.663 0.0195492C465.284 -11.4031 469.911 3.52617 470.93 7.90136C469.126 6.04757 467.322 4.19378 465.802 2.15634C465.618 1.87243 465.2 1.5384 464.816 2.1896C464.816 2.1896 468.775 7.68399 469.193 8.01803C466.236 8.11782 463.046 8.16749 460.139 8.03352C430.457 7.29482 402.511 -0.406996 376.487 -14.788L379.744 -16.2905C383.051 -18.0267 376.036 -19.5305 372.16 -17.427L371.743 -17.761C374.482 -25.9764 382.55 -39.6516 368.335 -18.9805C371.576 -26.1104 375.701 -43.0757 369.554 -29.2333C368.586 -26.9958 367.801 -24.4744 367.249 -21.9029C367.149 -21.4353 367.099 -21.2016 366.815 -21.0179C368.084 -45.1974 364.994 -28.4992 364.477 -21.5192L364.243 -21.5693C362.539 -34.1604 359.432 -36.7825 361.219 -23.44C359.733 -24.4922 358.012 -25.5945 356.526 -26.6468C355.924 -27.2647 355.507 -27.5987 355.456 -27.3649C355.039 -27.699 354.387 -28.0831 353.97 -28.4172L353.552 -28.7512C322.851 -47.558 287.455 -59.3019 247.233 -64.5005C232.249 -66.4897 216.748 -68.3453 200.679 -69.8336C203.051 -71.7703 194.165 -73.6752 189.621 -70.7368L189.153 -70.8371C193.764 -82.0747 204.955 -101.193 185.529 -73.3256C187.75 -77.9843 190.256 -86.2498 190.974 -90.7416L188.869 -91.1928C188.385 -90.074 187.617 -88.7717 187.032 -87.1854C185.679 -84.2967 184.927 -80.79 183.942 -77.3335C183.842 -76.866 183.691 -76.1647 183.407 -75.981C183.825 -85.9167 183.842 -90.5589 183.441 -92.1119L182.739 -92.2623C181.72 -89.7911 179.766 -77.2506 180.234 -73.7271C178.045 -95.4691 171.948 -98.9766 177.427 -70.9054L177.194 -70.9555C175.005 -75.5814 166.904 -90.2773 168.391 -82.3786C168.658 -81.3433 168.691 -80.358 169.009 -79.5565C169.41 -78.0034 169.627 -76.7343 170.312 -75.3649C170.996 -73.9955 171.447 -72.6763 172.132 -71.3069C153.374 -71.6601 133.847 -70.7108 113.302 -67.2903C90.217 -63.436 71.4085 -60.1322 57.0933 -73.2259C44.816 -84.4156 38.3849 -101.199 32.3715 -124.494L24.1866 -126.249C33.9084 -82.5969 40.2058 -59.4851 75.5177 -48.4926L75.7515 -48.4425C77.1547 -48.1418 78.5077 -47.6072 79.8607 -47.0727C77.7393 -46.3048 70.3897 -43.968 76.6369 -44.585C77.1547 -44.7185 78.4743 -45.1692 78.6079 -44.6515C78.2237 -44.0003 77.7059 -43.8668 77.3718 -43.4494C76.5199 -42.8985 75.8518 -42.0636 74.9999 -41.5127C74.3819 -40.9116 73.9977 -40.2604 73.3296 -39.4255C72.9955 -39.0081 72.6614 -38.5907 72.2772 -37.9395C69.1202 -33.4814 79.6936 -41.7291 80.3618 -42.564C69.8886 -27.9373 74.1147 -28.254 80.746 -39.7919C78.8752 -36.7697 74.0646 -17.7506 81.7984 -37.8548C81.9821 -37.5709 81.932 -37.3371 81.8819 -37.1033C81.6647 -34.9492 81.2137 -32.8452 81.2806 -30.8748C81.3474 -18.6346 83.8362 -32.5276 83.9698 -38.8564C87.6782 -18.5002 86.275 -32.4939 86.609 -39.7578C88.3462 -36.4512 94.8941 -35.0476 92.7226 -37.4692C91.1525 -39.2729 89.5823 -41.0766 88.0122 -42.8802C89.2315 -42.8634 96.2137 -42.3448 94.9108 -43.1131C93.658 -44.1152 92.8729 -45.017 91.2359 -45.3679L90.7683 -45.4682C98.2181 -44.8493 106.102 -45.1154 114.471 -46.5003C149.783 -56.0473 210.434 -56.0058 245.228 -51.7263C251.642 -50.8404 258.057 -49.9545 264.137 -48.6512C263.853 -48.4676 263.569 -48.2839 263.285 -48.1003C261.815 -46.9483 260.295 -45.5625 259.009 -44.1266C257.773 -42.9244 256.77 -41.6722 255.718 -40.1861C255.05 -39.3513 254.332 -38.2826 253.664 -37.4478C247.684 -28.949 267.695 -44.7099 269.265 -46.3294C249.371 -18.5621 257.539 -19.0119 270.083 -41.0191C266.626 -35.1584 257.355 1.24355 272.238 -37.3785C272.422 -37.0946 272.272 -36.3933 272.171 -35.9258C271.553 -31.9015 270.935 -27.8772 270.885 -24.2202C271.036 -0.958861 275.713 -27.3422 275.88 -39.5322C282.996 -0.840375 280.122 -27.375 280.874 -41.1513C284.165 -34.822 296.609 -32.3991 292.684 -36.9082C290.696 -39.0459 288.758 -41.4174 286.77 -43.5551C308.686 -37.3904 329.482 -31.7101 347.622 -20.4861C376.553 0.875349 433.046 16.8969 477.879 21.1276C478.296 21.4617 478.43 21.9794 478.848 22.3134C480.184 24.0669 481.57 25.5867 482.907 27.3402C484.661 29.4278 486.715 30.1127 488.669 31.2652C490.624 32.4177 485.713 24.5185 483.374 20.594C484.594 20.6109 485.629 20.3438 486.849 20.3607L492.595 22.0814C494.466 22.4824 494.248 21.2133 493.146 19.5099C505.974 17.8584 519.054 15.0381 532.383 11.0489C524.065 25.8929 529.811 24.1904 540.251 8.57854C541.052 8.26137 541.854 7.94421 542.606 7.86081C538.146 21.8203 533.185 44.964 548.836 5.03957L549.638 4.7224C549.588 4.95617 549.538 5.18995 549.438 5.6575C548.753 11.1346 547.784 16.7953 547.717 21.6713C547.818 52.0128 553.881 20.3028 554.399 3.05316L554.917 2.91964C563.87 51.2969 560.646 19.5523 561.331 0.382297L562.133 0.0651284C567.611 7.59697 582.678 10.3376 577.6 4.35875L570.484 -3.52398C573.692 -4.79265 576.715 -6.34522 579.922 -7.6139Z" fill="#64A21E"/>
<path fill-rule="evenodd" clip-rule="evenodd" d="M262.45 -69.3068C258.975 -72.4968 255.451 -75.4529 252.11 -78.1251L280.406 -72.0597C280.306 -71.5922 279.972 -71.1748 279.872 -70.7072C280.206 -71.1246 280.54 -71.5421 280.874 -71.9595L284.616 -71.1575C284.131 -70.0387 283.697 -69.1537 283.263 -68.2688C287.856 -71.4409 297.862 -69.0517 293.569 -67.2822C290.362 -66.0135 287.155 -64.7448 283.714 -63.5263L283.898 -63.2424C286.186 -62.5073 295.757 -59.2331 293.452 -58.7492C291.381 -58.2151 289.31 -57.681 287.155 -57.8984C292.617 -49.1475 298.213 -39.879 305.863 -29.9256C325.59 -4.42405 345.869 21.9292 370.056 40.3176C369.922 39.8 369.605 38.9984 369.471 38.4807C369.154 37.6791 368.887 36.6438 368.803 35.8923C367.066 29.1625 374.599 40.8025 377.255 45.5286L377.907 45.9128C371.96 21.1645 378.107 24.4383 380.797 43.8425C379.978 38.5322 384.872 9.9948 383.87 42.0561C384.154 41.8725 384.254 41.405 384.355 40.9374C385.24 37.9485 386.125 34.9595 387.194 32.2545C395.062 16.0912 390.05 36.0455 386.042 44.4778C404.766 19.8831 393.692 37.315 389.382 47.15C394.26 43.7942 404.967 46.3338 400.39 48.287C396.899 49.7393 393.458 50.9578 389.733 52.36C391.554 52.9948 402.712 56.8537 400.173 57.2875L399.655 57.421C412.718 62.6662 426.849 65.2063 442.484 64.1563C441.933 63.3046 444.238 62.8207 452.489 63.1223L453.057 62.755C452.874 62.4711 452.64 62.421 452.406 62.3709C450.401 61.4522 448.163 60.4834 446.727 59.1974C436.203 50.0952 450.151 55.7746 455.529 60.3508C440.813 38.8576 451.754 51.717 458.118 56.2599C456.598 50.7993 460.29 38.1421 460.875 43.4023C461.242 47.3933 461.559 51.6181 461.927 55.6092C462.612 53.5553 467.623 40.4475 467.205 43.5367C467.122 46.2085 467.322 48.6966 466.487 51.4518C463.13 63.6915 484.193 53.291 510.218 36.863C508.998 36.8461 508.814 36.5622 509.666 36.0113C513.274 32.8724 516.131 29.8169 520.423 28.0474C523.681 26.545 527.122 25.3264 530.379 23.824C530.947 23.4567 531.465 23.3232 532.033 22.9559C549.822 11.8536 567.244 0.183569 580.206 -7.79668L606.865 -2.08218C591.465 5.86435 580.691 15.0472 560.947 24.997C562.901 26.1494 565.039 27.5858 566.944 28.9721C568.664 30.0744 569.817 31.544 571.437 33.1139C572.456 34.0659 573.241 34.9677 574.21 36.1535C582.061 45.1718 556.487 32.11 552.211 29.2373L551.977 29.1872C578.336 60.2669 566.493 61.8851 549.722 36.2838C554.132 43.0974 564.472 89.5713 546.03 42.0944C545.696 42.5119 545.73 43.4971 545.813 44.2485C546.164 49.4586 546.983 54.7689 546.448 59.5446C543.859 91.0213 539.449 56.8218 540.752 40.474C525.886 94.9932 532.951 58.6077 533.486 40.139L533.252 40.0889C528.024 48.5043 512.924 55.0482 513.725 51.3078C496.237 61.0074 478.915 68.7867 460.658 72.9423C460.457 73.8773 460.023 74.7623 459.822 75.6974C459.672 76.3987 457.567 82.7941 457.567 82.7941C457.1 82.6938 457.2 82.2263 457.3 81.7587C458.135 79.0035 458.453 76.3819 459.288 73.6267C457.133 76.8326 449.566 88.17 454.778 77.5503C455.212 76.6653 456.832 74.812 456.231 74.1941C455.429 74.5112 454.811 75.1123 454.243 75.4796C453.057 76.448 451.921 77.1825 450.735 78.1509C449.833 78.9356 448.798 79.2027 447.712 79.7035C447.144 80.0708 446.342 80.388 445.591 80.4714C442.1 81.9237 445.34 78.217 449.232 74.8945C396.281 81.1494 360.785 49.3337 327.979 9.53637C327.695 9.72001 327.511 9.43612 327.562 9.20234C327.378 8.91844 327.194 8.63453 327.244 8.40076L325.674 6.5971C325.724 9.78655 326.075 14.9966 324.889 9.11849C324.755 8.60081 324.822 7.14804 324.354 7.04778C324.02 7.46521 324.104 8.21666 324.004 8.68421C323.803 9.61931 323.603 10.5544 323.402 11.4895C323.252 12.1908 322.868 12.842 322.433 13.727C322.333 14.1946 321.999 14.612 321.899 15.0795C320.011 19.3207 322.25 6.59664 322.734 5.47789C316.069 19.4538 315.334 14.895 320.763 5.54442C319.276 7.91543 308.269 17.0482 319.226 4.72598C318.992 4.67586 318.942 4.90963 318.708 4.8595C317.573 5.5941 316.153 6.51233 314.883 6.72925C307.016 9.1996 315.301 3.64005 319.26 2.28798C305.279 2.4698 314.583 1.28543 319.159 -0.667701C317.155 -1.5864 314.917 -5.97845 315.351 -6.86342C309.404 -14.4955 303.692 -22.0775 297.745 -29.7096C288.758 -41.4165 279.755 -51.9045 270.551 -61.4574C269.382 -61.708 268.213 -61.9587 267.043 -62.2093C266.576 -62.3096 261.247 -63.6963 261.247 -63.6963C261.347 -64.1638 261.865 -64.2973 262.099 -64.2472C264.204 -63.796 266.359 -63.5787 268.279 -63.4114C267.912 -63.9792 267.261 -64.3634 266.893 -64.9312C265.223 -66.2673 262.951 -68.2214 262.45 -69.3068Z" fill="#F0F835"/>
</g>
<defs>
<clipPath id="clip0">
<rect width="596" height="115" fill="white" transform="matrix(-0.977789 -0.209592 -0.209592 0.977789 606.865 -2.08304)"/>
</clipPath>
</defs>
</svg>
