<svg width="306" height="57" viewBox="0 0 306 57" fill="none" xmlns="http://www.w3.org/2000/svg">
<path fill-rule="evenodd" clip-rule="evenodd" d="M32.2949 2.78377C32.6633 3.0291 33.0317 3.15176 33.2772 3.39708C32.4177 2.29313 31.8037 1.55716 31.5581 1.31184C31.9265 1.80248 32.0493 2.29313 32.2949 2.78377ZM14.1215 -1.87735H37.6978C40.3992 -0.160094 42.2411 1.31184 37.0838 -0.282755C36.4699 -0.528077 34.9963 -1.75469 34.5052 -1.01872C34.8735 -0.160094 35.3647 0.330551 35.8559 0.943856C36.7154 2.04781 37.4522 3.15176 38.3117 4.25571C38.9257 5.11433 39.2941 5.97296 39.7853 6.95425C45.5565 10.0208 51.205 12.474 56.8535 14.5592C54.2748 11.1247 52.6785 9.16215 61.0284 15.9085C58.2042 12.106 53.9064 1.92514 59.1865 9.16215C60.0461 10.2661 60.6601 11.8607 61.3968 13.3326C61.5196 13.578 61.6424 13.8233 61.7652 13.8233C58.0814 -4.20791 63.2387 11.0021 63.3615 14.0686C62.7475 2.17047 65.3262 -1.26404 64.835 15.2952C64.9578 14.1913 68.396 1.31184 68.2732 6.34095C68.2732 6.95425 68.2732 7.44489 68.1504 8.0582C68.1504 9.03949 68.0276 9.77546 67.9048 10.6341C67.6593 11.6154 67.5365 12.5967 67.2909 13.578C67.1681 14.0686 66.9225 14.6819 66.9225 15.2952C67.2909 15.5405 67.9048 14.0686 68.1504 13.7006C72.0798 8.54885 68.1504 15.5405 67.1681 17.6258C68.2732 16.8898 69.3784 16.1538 70.3607 15.2952C70.4835 15.1725 70.7291 15.0499 70.8519 15.4179C70.8519 15.4179 68.2732 17.7484 68.0276 17.8711C69.5012 18.2391 71.0975 18.6071 72.571 18.8524C87.5517 21.6736 102.41 20.815 117.022 16.3992L115.549 15.2952C114.075 14.0686 117.759 14.0686 119.478 15.5405L119.723 15.4179C119.232 11.0021 116.654 3.27442 121.565 15.1725C120.706 11.2474 120.46 2.29313 122.057 9.89812C122.302 11.1247 122.425 12.474 122.425 13.8233C122.425 14.0686 122.425 14.1913 122.548 14.3139C124.512 2.04781 124.267 10.7567 123.776 14.3139H123.898C126.109 8.18086 127.951 7.19957 125.618 13.7006C126.477 13.3326 127.459 12.9646 128.319 12.5967C128.687 12.3513 128.933 12.2287 128.933 12.3513C129.179 12.2287 129.547 12.106 129.792 11.9834L130.038 11.8607C147.475 5.72764 166.508 3.6424 187.26 5.35966C194.996 5.97296 202.977 6.70893 211.204 7.69022C210.222 6.46361 214.888 6.46361 216.853 8.42618H217.098C215.993 2.29313 212.432 -8.50105 219.186 7.56756C218.572 4.99167 218.203 0.575873 218.326 -1.75469H219.431C219.554 -1.14138 219.8 -0.405416 219.923 0.453212C220.291 2.04781 220.291 3.88772 220.414 5.72764C220.414 5.97296 220.414 6.34095 220.536 6.46361C221.396 1.4345 221.887 -0.896061 222.256 -1.63203H222.624C222.87 -0.282755 222.501 6.21828 221.887 7.93554C225.325 -2.73598 228.764 -3.83993 222.992 9.6528H223.115C224.711 7.56756 230.36 1.06652 228.764 4.86901C228.518 5.35966 228.395 5.8503 228.15 6.21828C227.781 6.95425 227.536 7.56756 227.044 8.18086C226.553 8.79417 226.185 9.40747 225.694 10.0208C235.149 11.8607 244.849 14.4366 254.796 18.3617C265.97 22.7775 275.057 26.4574 283.652 21.4283C291.02 17.1351 296.054 9.40747 301.58 -1.63203H305.878C296.3 19.2204 290.651 30.1372 271.741 31.8545H271.618C270.882 31.8545 270.145 31.9771 269.408 32.0998C270.39 32.7131 273.829 34.6757 270.759 33.6944C270.513 33.5717 269.899 33.2037 269.776 33.4491C269.899 33.817 270.145 33.9397 270.268 34.185C270.636 34.553 270.882 35.0436 271.25 35.4116C271.496 35.7796 271.618 36.1476 271.864 36.6382C271.987 36.8836 272.109 37.1289 272.232 37.4969C273.337 40.0728 268.917 34.7983 268.671 34.3077C272.355 42.7713 270.268 42.158 268.18 35.657C268.794 37.3742 269.162 47.4324 267.443 36.5156C267.321 36.6382 267.321 36.7609 267.321 36.8836C267.198 37.9875 267.198 39.0915 266.952 40.0728C265.601 46.2058 265.847 38.9688 266.461 35.7796C262.409 45.5925 264.619 38.7235 265.233 35.0436C264.005 36.5156 260.567 36.5156 261.918 35.5343C262.9 34.7983 263.882 34.0624 264.865 33.3264C264.251 33.2037 260.69 32.7131 261.427 32.4678C262.163 32.0998 262.654 31.7318 263.514 31.7318H263.76C259.953 31.2412 256.024 30.2599 251.971 28.6653C235.272 20.079 204.819 13.578 186.891 11.9834C183.576 11.738 180.26 11.4927 177.068 11.4927C177.191 11.6154 177.313 11.738 177.436 11.8607C178.05 12.5967 178.664 13.4553 179.155 14.3139C179.646 15.0499 180.015 15.7859 180.383 16.6445C180.629 17.1351 180.874 17.7484 181.12 18.2391C183.207 23.1455 174.857 13.0873 174.244 12.106C181.243 28.1746 177.191 27.0707 173.261 14.6819C174.366 17.9938 175.103 37.2515 171.788 16.2765C171.665 16.3992 171.665 16.7671 171.665 17.0125C171.542 19.0977 171.419 21.1829 171.051 23.0229C168.472 34.6757 168.963 20.9376 170.191 14.8046C162.455 33.4491 166.753 20.447 167.858 13.4553C165.525 16.2765 159.017 16.1538 161.473 14.3139C162.701 13.4553 163.929 12.474 165.157 11.6154C153.492 12.3513 142.44 12.9646 132.126 16.6445C115.303 24.2495 85.2187 26.212 62.2564 23.5135C62.0108 23.6362 61.888 23.8815 61.6424 24.0041C60.7829 24.7401 59.9233 25.3534 59.0638 26.0894C57.9586 26.948 56.8535 27.0707 55.7483 27.4387C54.6432 27.8066 57.9586 24.3721 59.5549 22.6549C58.941 22.5322 58.4498 22.2869 57.8358 22.1642L54.766 22.4096C53.7837 22.4096 54.0292 21.7962 54.766 21.0603C48.5036 18.8524 42.2411 16.0312 35.9787 12.5967C38.5573 20.9376 35.8559 19.4657 32.2949 10.5114C31.9265 10.2661 31.5581 10.0208 31.1898 9.89812C31.9265 17.3804 31.9265 29.5239 28.3655 7.81288L27.9971 7.56756C27.9971 7.69022 27.9971 7.81288 27.9971 8.0582C27.7516 10.8794 27.6288 13.8233 27.1376 16.2765C23.8222 31.4865 24.1906 14.9272 25.7869 6.21828L25.5413 6.09562C15.8406 29.4012 20.8751 13.8233 22.5942 4.13305L22.2259 3.88772C18.6649 7.07691 10.8061 6.83159 13.9987 4.37837L18.4193 1.18918C16.9458 0.207889 15.5951 -0.896061 14.1215 -1.87735Z" fill="#64A21E"/>
<path fill-rule="evenodd" clip-rule="evenodd" d="M180.137 1.31185C182.225 0.0852337 184.312 -1.01872 186.277 -2.00001H171.419C171.419 -1.75468 171.542 -1.50936 171.542 -1.26404C171.419 -1.50936 171.296 -1.75468 171.173 -2.00001H169.209C169.331 -1.3867 169.454 -0.896056 169.577 -0.405411C167.612 -2.49065 162.332 -2.36799 164.297 -1.01872C165.77 -0.0374274 167.244 0.943862 168.84 1.92515L168.717 2.04781C167.49 2.17047 162.332 2.78378 163.437 3.27442C164.42 3.76507 165.402 4.25571 166.507 4.37837C162.823 8.18087 159.017 12.2287 154.105 16.3992C141.457 27.0707 128.441 38.1102 114.32 44.7339C114.443 44.4886 114.689 44.1206 114.811 43.8753C115.057 43.5073 115.303 43.0166 115.425 42.6487C117.022 39.4595 111.987 44.4886 110.145 46.5738L109.777 46.6965C115.425 34.921 111.987 35.9023 108.549 45.3472C109.531 42.7713 110.145 27.9293 107.198 44.1206C107.075 43.9979 107.075 43.7526 107.075 43.5073C106.953 41.9127 106.83 40.3181 106.584 38.8462C104.374 29.8919 104.742 40.4408 105.848 45.1019C99.0939 30.7505 102.778 40.6861 103.883 46.0832C101.795 43.8753 96.1469 43.9979 98.2343 45.4699C99.8307 46.5738 101.427 47.5551 103.146 48.659C102.164 48.7817 96.1469 49.5177 97.3748 50.0083L97.6204 50.131C90.4984 51.3576 83.1308 51.1123 75.3949 48.9044C75.7632 48.5364 74.6581 48.0457 70.4831 47.3098L70.2376 47.0644C70.3604 46.9418 70.4831 46.9418 70.6059 46.9418C71.7111 46.6965 72.939 46.4511 73.7986 45.9605C80.061 42.526 72.4478 43.8753 69.2552 45.5925C78.9559 36.3929 72.0795 41.6674 68.3957 43.262C69.7464 40.6861 69.2552 33.9397 68.3957 36.5156C67.7817 38.4782 67.1677 40.5634 66.5538 42.526C66.431 41.422 65.3258 34.3077 65.203 35.9023C64.9575 37.2516 64.5891 38.4782 64.7119 39.9501C65.0803 46.4511 55.6252 38.9688 44.3282 27.9293C44.9422 28.052 45.065 27.9293 44.6966 27.5613C43.2231 25.5988 42.118 23.7588 40.1533 22.4096C38.6798 21.3056 37.0835 20.3243 35.61 19.2204C35.3644 18.975 35.1188 18.8524 34.8732 18.6071C27.1372 11.1247 19.6469 3.39708 13.9984 -2.00001H0C6.8764 3.64241 11.2969 9.40748 20.138 16.5218C19.0329 16.8898 17.805 17.3805 16.6998 17.8711C15.7175 18.2391 14.9807 18.8524 13.9984 19.4657C13.3844 19.8337 12.8933 20.2017 12.2793 20.6923C7.36758 24.3721 21.6116 20.5696 24.0674 19.5884H24.1902C7.61316 32.3451 13.3844 34.4304 24.5586 23.3909C21.6116 26.3347 11.4197 48.5364 25.7865 26.7027C25.9093 26.948 25.7865 27.4387 25.6637 27.8067C24.927 30.3825 23.9446 32.9584 23.699 35.4116C21.6116 51.4803 27.5056 34.7983 28.6108 26.4574C30.2071 55.4054 30.5754 36.3929 32.2945 27.0707H32.4173C34.1364 31.8545 41.0128 36.7609 41.0128 34.7983C48.7488 41.5447 56.6075 47.3098 65.3258 51.3576C65.3258 51.8482 65.4486 52.3389 65.4486 52.8295C65.4486 53.1975 65.817 56.632 65.817 56.632C66.0626 56.632 66.0626 56.3867 66.0626 56.1414C65.9398 54.6694 66.0626 53.3202 65.9398 51.8482C66.6766 53.6882 69.2552 60.1892 67.7817 54.3015C67.6589 53.8108 67.0449 52.7069 67.4133 52.4615C67.7817 52.7069 68.0273 53.0748 68.2729 53.3202C68.764 53.9335 69.2552 54.4241 69.7464 55.0374C70.1148 55.5281 70.6059 55.7734 71.0971 56.1414C71.3427 56.3867 71.7111 56.632 72.0795 56.7547C73.6758 57.8586 72.4478 55.6507 70.8515 53.5655C96.7608 62.3971 118.004 50.2536 138.756 33.817C138.879 33.9397 139.002 33.817 139.002 33.6944C139.124 33.5717 139.247 33.4491 139.247 33.3264L140.23 32.5904C139.861 34.185 139.124 36.7609 140.352 33.9397C140.475 33.6944 140.598 32.9584 140.843 32.9584C140.966 33.2037 140.843 33.5717 140.843 33.817C140.843 34.3077 140.843 34.7983 140.843 35.289C140.843 35.657 140.966 36.0249 141.089 36.5156C141.089 36.7609 141.212 37.0062 141.212 37.2516C141.703 39.5821 141.949 32.9584 141.826 32.3451C143.668 40.0728 144.527 37.8649 142.808 32.5904C143.299 33.9397 147.843 39.7048 143.668 32.3451C143.791 32.3451 143.791 32.4678 143.913 32.4678C144.404 32.9584 145.018 33.5717 145.632 33.817C149.316 35.9023 145.755 32.2225 143.913 31.1185C150.913 32.7131 146.369 31.1185 144.282 29.6466C145.387 29.4012 146.983 27.4387 146.86 26.948C150.667 23.7588 154.351 20.5696 158.157 17.3805C163.929 12.474 169.577 8.18087 175.226 4.37837C175.839 4.37837 176.453 4.37837 177.067 4.37837C177.313 4.37837 180.137 4.25571 180.137 4.25571C180.137 4.01039 179.892 3.88773 179.769 3.88773C178.664 3.88773 177.559 3.76507 176.576 3.64241C176.822 3.39708 177.19 3.27442 177.436 3.0291C178.418 2.53846 179.769 1.80249 180.137 1.31185Z" fill="#F0F835"/>
</svg>
