<svg width="173" height="73" viewBox="0 0 173 73" fill="none" xmlns="http://www.w3.org/2000/svg">
<g clip-path="url(#clip0)">
<path d="M13.739 2.56946L105.582 7.38467L160.1 3.79684L171.898 15.3326L167.893 35.5766L171.157 59.9367L165.511 67.428L120.798 70.245L64.9683 70.5927C61.5609 65.7992 58.432 61.5301 58.0691 61.3595C57.1632 61.0212 37.6285 67.2325 37.6285 67.2325L19.6591 64.1657L16.3072 57.1681L15.4683 38.1458L4.60055 34.2625C4.60055 34.2625 3.56189 25.4661 3.27796 24.5893C3.18378 24.3264 2.16574 22.5798 0.960717 20.3956L0.974804 9.82004L13.739 2.56946Z" fill="#DB1C8B"/>
<g opacity="0.45">
<g opacity="0.45">
<path opacity="0.45" d="M1.17878 11.3158L1.13962 20.3054L1.17878 11.3158Z" fill="white"/>
</g>
</g>
<path d="M1.15387 9.72985L14.0081 2.47786L105.761 7.29448L160.279 3.70665L172.077 15.2424L168.072 35.4864L171.336 59.8465L165.689 67.2497L165.24 67.3449L168.504 62.9754L165.976 39.6613L161.315 41.0564L165.46 35.4393L169.244 18.3713L157.446 6.83558L105.537 10.2062L105.151 14.3542L103.198 10.4192L102.928 10.4234L11.1754 5.60679L1.17876 11.3158L1.15387 9.72985Z" fill="white"/>
<path d="M1.03003 19.0732C3.02876 20.1875 5.12029 21.4766 5.21724 21.9157C5.41114 22.7939 5.67131 33.6295 5.67131 33.6295L16.8341 33.3662L18.5808 35.6301L18.8837 54.9252L29.905 62.8599L43.9628 63.4324L57.3863 58.0221C60.6677 60.5263 67.5822 65.0004 67.5822 65.0004L92.6103 64.5193L121.607 64.4166L126.51 61.2552L127.82 64.4072L167.893 64.2187L167.363 64.9321L165.331 67.4315L120.798 70.2457L64.9683 70.5934L56.0578 65.1813L37.4498 67.3241L19.4805 64.2573L16.2214 57.4346L15.3838 38.5003L15.2938 38.5017L15.2896 38.2374L4.692 34.3499C4.48703 32.7668 3.65749 25.8178 3.46359 24.9396C3.46359 24.9396 3.4622 24.8515 3.37079 24.7648C3.3694 24.6767 3.36802 24.5886 3.36802 24.5886C3.27384 24.3257 2.34722 22.6658 1.14358 20.5696L1.03003 19.0732Z" fill="#82027E"/>
</g>
<path d="M66.7797 44.3376L70.2703 37.7098C70.2429 37.822 70.275 38.5498 70.3105 39.8656L70.5015 43.9526C70.5654 45.3523 70.598 46.1641 70.5991 46.3601L76.143 46.3288L74.6604 26.7369C74.6324 26.737 74.2966 26.7669 73.5969 26.8269C72.9251 26.8587 72.2534 26.9185 71.5538 26.9784C70.8819 27.0102 70.5461 27.0401 70.5741 27.04L70.2425 27.8258C69.4141 29.8745 67.2856 34.7586 67.2853 34.7026L66.4913 32.9431L64.7905 29.2566L63.6846 26.7988L59.4303 27.1029C59.3504 27.8313 59.0886 31.0528 58.6448 36.7674C58.2009 42.454 57.9671 45.6754 57.9433 46.4316L63.3753 46.4009L63.5783 37.7196L66.7797 44.3376ZM90.0071 41.0705L83.2369 42.1167L83.2231 39.6808L87.0595 39.7431L87.0913 35.4589L83.1744 36.013L83.1255 32.3172L89.4277 32.6736C89.455 32.5615 89.5066 31.7772 89.6102 30.2926L89.9257 26.6507L88.974 26.7121L78.0592 27.6697L77.9906 30.3861L77.805 37.1913C77.7363 39.9077 77.6637 41.9242 77.615 43.2125L77.5485 46.3209L89.7563 46.252L90.0071 41.0705ZM92.3266 29.8852L92.1421 36.8864C92.0737 39.6588 92.0014 41.7312 91.9529 43.0475L91.8869 46.24L97.6548 46.2074L97.5705 41.1958L100.68 41.4023C100.633 43.1106 100.586 44.7068 100.567 46.191L106.335 46.1584L106.084 26.5595L104.825 26.6786L102.334 26.9167L101.075 27.0638L100.819 36.3054L97.5156 36.436L97.4042 26.6085L96.1448 26.7276L93.6541 26.9657L92.3949 27.1128L92.3266 29.8852ZM108.585 29.7935L108.401 36.7946C108.333 39.567 108.26 41.6395 108.212 42.9558L108.146 46.1482L113.914 46.1156L113.822 39.8161L115.726 39.8053C116.042 41.1476 116.608 42.3484 117.37 43.3801C118.414 44.7462 119.707 45.6629 121.278 46.1301C122.876 46.5971 124.416 46.5884 125.953 46.0477C127.49 45.507 128.745 44.6039 129.718 43.2824C130.968 41.5673 131.6 39.3237 131.64 36.4954C131.621 33.1635 130.879 30.6476 129.441 28.9197C126.564 25.2679 120.545 25.4979 117.819 28.6493C116.567 30.0004 115.765 31.825 115.442 34.1228L113.762 34.1323L113.663 26.5167L112.404 26.6359L109.913 26.8739L108.654 27.021L108.585 29.7935ZM125.918 39.6918C125.363 40.6749 124.582 41.1834 123.602 41.2169C122.622 41.2504 121.807 40.751 121.186 39.7465C120.677 38.8534 120.418 37.6788 120.382 36.251C120.401 34.5988 120.702 33.3651 121.341 32.5495C121.897 31.7904 122.623 31.3943 123.547 31.417C124.471 31.4118 125.229 31.8555 125.794 32.7204C126.359 33.5292 126.646 34.7316 126.655 36.3836C126.635 37.8397 126.389 38.9331 125.918 39.6918Z" fill="white"/>
<defs>
<clipPath id="clip0">
<rect width="171.176" height="69.4359" fill="white" transform="translate(0.682617 2.68701) rotate(-0.899414)"/>
</clipPath>
</defs>
</svg>
