<svg width="217" height="61" viewBox="0 0 217 61" fill="none" xmlns="http://www.w3.org/2000/svg">
<path d="M21.9318 5.16608L132.935 9.63489L201.604 8.02474L216.064 16.5294L210.369 31.0148L213.681 48.589L206.337 53.8753L150.022 55.1056L79.809 54.3625C75.6805 50.8551 71.8851 47.7298 71.4343 47.6007C70.3063 47.3413 45.5406 51.46 45.5406 51.46L27.3707 49.5624L23.3837 44.4712L22.948 30.7782L15.6819 27.7666C15.6819 27.7666 14.6622 21.423 14.3337 20.7874C14.2239 20.5967 13.0006 19.3227 11.5565 17.7307L11.9185 10.1266L21.9318 5.16608Z" fill="#14592D"/>
<g opacity="0.45">
<g opacity="0.45">
<path opacity="0.45" d="M1.52804 10.6044L1.18612 17.0678L1.52804 10.6044Z" fill="white"/>
</g>
</g>
<path d="M12.1466 10.0647L22.2731 5.10483L133.163 9.57305L201.832 7.9629L216.292 16.4676L210.597 30.9529L213.909 48.5272L206.567 53.7501L205.999 53.8105L210.245 50.7267L207.826 33.9176L201.92 34.8379L207.314 30.8726L212.628 18.6671L198.168 10.1624L132.786 11.6627L132.167 14.6386L129.839 11.7743L129.5 11.7725L18.6094 7.30432L12.1262 11.2055L12.1466 10.0647Z" fill="white"/>
<path d="M11.687 16.7811C14.164 17.6179 16.752 18.582 16.8596 18.8995C17.0748 19.5344 17.0492 27.3304 17.0492 27.3304L24.8214 27.3656L26.9439 29.0246L26.6967 42.9042L35.9716 48.1786L53.6296 48.8402L70.6848 45.1887C74.7293 47.0477 83.2781 50.3878 83.2781 50.3878L114.765 50.4871L151.229 50.929L157.498 48.743L159.043 51.0327L209.436 51.61L208.748 52.1135L206.111 53.8746L150.022 55.1061L79.8093 54.363L68.7812 50.3129L45.3133 51.5228L27.1433 49.6252L23.2674 44.6612L22.8306 31.0316L22.7173 31.031L22.7207 30.8409L15.7944 27.831C15.5882 26.6891 14.7713 21.6776 14.5561 21.0426C14.5561 21.0426 14.5572 20.9792 14.4451 20.9153C14.4462 20.8519 14.4473 20.7885 14.4473 20.7885C14.3374 20.5978 13.2263 19.3878 11.7811 17.8591L11.687 16.7811Z" fill="#093A1B"/>
<path d="M46.8153 25.1559L44.5149 27.5336L42.1719 25.1983C40.8939 23.8821 40.8939 21.8016 42.1719 20.5278C43.4499 19.2116 45.5373 19.2116 46.8579 20.5278C48.1359 21.7591 48.1359 23.8821 46.8153 25.1559Z" fill="white"/>
<path d="M42.1716 31.7795L44.5146 29.4442L46.8576 31.7795C48.1356 33.0532 48.1356 35.1762 46.8576 36.45C45.5796 37.7662 43.4922 37.7662 42.1716 36.45C40.851 35.1337 40.851 33.0532 42.1716 31.7795Z" fill="white"/>
<path d="M47.7952 30.8029L45.4521 28.4677L47.7952 26.1324C49.0732 24.8162 51.1606 24.8162 52.4812 26.1324C53.7592 27.4487 53.7592 29.5292 52.4812 30.8029C51.1606 32.1192 49.0732 32.1192 47.7952 30.8029Z" fill="white"/>
<path d="M41.1924 26.1324L43.5354 28.4677L41.1924 30.8029C39.9144 32.1192 37.827 32.1192 36.5064 30.8029C35.2284 29.4867 35.2284 27.4062 36.5064 26.1324C37.827 24.8162 39.9144 24.8162 41.1924 26.1324Z" fill="white"/>
<path d="M172.059 25.0284H162.389V27.7458H165.797V35.9829H168.609V27.7458H172.059V25.0284Z" fill="white"/>
<path d="M78.9784 33.7325C80.086 33.7325 80.938 33.2655 81.4066 32.6286L83.6644 33.9448C82.642 35.4309 81.0232 36.2801 78.8932 36.2801C75.2296 36.2801 72.9292 33.775 72.9292 30.5056C72.9292 27.2363 75.2722 24.7312 78.6802 24.7312C81.9178 24.7312 84.1756 27.2787 84.1756 30.5056C84.1756 30.9302 84.133 31.3124 84.0478 31.652H75.9112C76.2946 33.0956 77.4874 33.7325 78.9784 33.7325ZM81.4066 29.4866C81.0658 27.9156 79.873 27.2787 78.7228 27.2787C77.2318 27.2787 76.2094 28.0855 75.8686 29.4866H81.4066Z" fill="white"/>
<path d="M97.8502 30.5057C97.8502 33.7751 95.4646 36.2802 92.5252 36.2802C90.9489 36.2802 89.7561 35.6858 88.9893 34.6667V40.3138H86.1777V25.0285H88.9893V26.3023C89.7561 25.2833 90.9489 24.6888 92.5252 24.6888C95.4646 24.7313 97.8502 27.2364 97.8502 30.5057ZM95.0386 30.5057C95.0386 28.68 93.7606 27.4062 92.014 27.4062C90.3099 27.4062 88.9893 28.6375 88.9893 30.5057C88.9893 32.3315 90.2673 33.6053 92.014 33.6053C93.7606 33.5628 95.0386 32.3315 95.0386 30.5057Z" fill="white"/>
<path d="M105.305 33.7325C106.413 33.7325 107.265 33.2655 107.733 32.6286L109.991 33.9448C108.969 35.4309 107.35 36.2801 105.22 36.2801C101.556 36.2801 99.2559 33.775 99.2559 30.5056C99.2559 27.2363 101.599 24.7312 105.007 24.7312C108.244 24.7312 110.502 27.2787 110.502 30.5056C110.502 30.9302 110.46 31.3124 110.374 31.652H102.153C102.621 33.0956 103.814 33.7325 105.305 33.7325ZM107.733 29.4866C107.392 27.9156 106.2 27.2787 105.049 27.2787C103.558 27.2787 102.536 28.0855 102.195 29.4866H107.733Z" fill="white"/>
<path d="M136.446 30.5057C136.446 33.7751 134.06 36.2802 131.121 36.2802C129.545 36.2802 128.352 35.6858 127.585 34.6667V40.3138H124.773V25.0285H127.585V26.3023C128.352 25.2833 129.545 24.6888 131.121 24.6888C134.06 24.7313 136.446 27.2364 136.446 30.5057ZM133.634 30.5057C133.634 28.68 132.356 27.4062 130.61 27.4062C128.906 27.4062 127.585 28.6375 127.585 30.5057C127.585 32.3315 128.863 33.6053 130.61 33.6053C132.356 33.5628 133.634 32.3315 133.634 30.5057Z" fill="white"/>
<path d="M143.901 33.7326C145.008 33.7326 145.86 33.2655 146.329 32.6286L148.587 33.9449C147.564 35.4309 145.946 36.2801 143.816 36.2801C140.152 36.2801 137.852 33.775 137.852 30.5057C137.852 27.2363 140.195 24.7312 143.603 24.7312C146.84 24.7312 149.098 27.2788 149.098 30.5057C149.098 30.9303 149.055 31.3124 148.97 31.6521H140.748C141.217 33.0957 142.41 33.7326 143.901 33.7326ZM139.939 22.396C139.939 21.5893 140.621 20.9099 141.43 20.9099C142.239 20.9099 142.878 21.5893 142.878 22.396C142.878 23.2027 142.239 23.8821 141.43 23.8821C140.621 23.8821 139.939 23.2027 139.939 22.396ZM146.329 29.4867C145.988 27.9157 144.795 27.2788 143.645 27.2788C142.154 27.2788 141.132 28.0855 140.791 29.4867H146.329ZM144.071 22.396C144.071 21.5893 144.753 20.9099 145.562 20.9099C146.372 20.9099 147.011 21.5893 147.011 22.396C147.011 23.2027 146.372 23.8821 145.562 23.8821C144.753 23.8821 144.071 23.2027 144.071 22.396Z" fill="white"/>
<path d="M150.461 30.5056C150.461 27.2363 152.89 24.7312 156.212 24.7312C158.342 24.7312 160.217 25.8776 161.111 27.5335L158.683 28.9771C158.257 28.0855 157.32 27.491 156.212 27.491C154.551 27.491 153.273 28.7224 153.273 30.5056C153.273 32.2465 154.508 33.4778 156.212 33.4778C157.363 33.4778 158.3 32.9258 158.726 32.0342L161.154 33.4353C160.217 35.1337 158.342 36.2801 156.212 36.2801C152.89 36.2801 150.461 33.775 150.461 30.5056Z" fill="white"/>
<path d="M172.954 30.5056C172.954 27.2363 175.51 24.7312 178.705 24.7312C181.9 24.7312 184.499 27.2363 184.499 30.5056C184.499 33.775 181.943 36.2801 178.705 36.2801C175.51 36.2801 172.954 33.775 172.954 30.5056ZM181.687 30.5056C181.687 28.7224 180.409 27.491 178.705 27.491C177.044 27.491 175.766 28.7224 175.766 30.5056C175.766 32.2889 177.044 33.5202 178.705 33.5202C180.409 33.5202 181.687 32.2889 181.687 30.5056Z" fill="white"/>
<path d="M119.661 35.9829H122.941L118.767 30.4208L122.814 25.0284H119.448L116.296 29.4867H115.359V25.0284H112.504V35.9829H115.359V31.6521H116.509L119.661 35.9829Z" fill="white"/>
<path d="M193.317 35.9829H196.597L192.422 30.4208L196.469 25.0284H193.104L189.952 29.4867H188.972V25.0284H186.16V35.9829H188.972V31.6521H190.165L193.317 35.9829Z" fill="white"/>
<path d="M71.0974 35.9829H68.1154V23.7547H62.7052V35.9829H59.7231V20.9099H71.0974V35.9829Z" fill="white"/>
</svg>
