<svg width="16" height="15" viewBox="0 0 16 15" fill="none" xmlns="http://www.w3.org/2000/svg">
<path d="M9.55649 7.36396L15.2133 1.70711C15.6039 1.31658 15.6039 0.683417 15.2133 0.292893C14.8228 -0.097631 14.1897 -0.0976311 13.7991 0.292893L8.14228 5.94975L2.48543 0.292893C2.0949 -0.097631 1.46174 -0.097631 1.07121 0.292893C0.680689 0.683417 0.680689 1.31658 1.07121 1.70711L6.72807 7.36396L1.07121 13.0208C0.680689 13.4113 0.680689 14.0445 1.07121 14.435C1.46174 14.8256 2.0949 14.8256 2.48543 14.435L8.14228 8.77817L13.7991 14.435C14.1897 14.8256 14.8228 14.8256 15.2133 14.435C15.6039 14.0445 15.6039 13.4113 15.2133 13.0208L9.55649 7.36396Z" fill="#E51435"/>
</svg>
