<svg width="34" height="33" viewBox="0 0 34 33" fill="none" xmlns="http://www.w3.org/2000/svg">
<path d="M0.0173506 16.5173C0.00777108 7.39787 7.39787 0 16.5173 0H17.0938C26.1997 0 33.5842 7.37675 33.5938 16.4827C33.6033 25.6021 26.2132 33 17.0938 33H16.5174C7.41143 33 0.0269159 25.6233 0.0173506 16.5173Z" fill="white"/>
<path d="M21.4526 9.70344C25.7617 12.0404 27.3603 17.428 25.0234 21.737C22.6865 26.046 17.2988 27.6447 12.9898 25.3078C8.6808 22.9708 7.08212 17.5832 9.41907 13.2742C10.8563 10.6241 13.4475 8.99911 16.232 8.68439M16.232 8.68439L10.9345 7.11408M16.232 8.68439L13.8076 14.0927" stroke="#2FBBE5" stroke-width="2" stroke-linecap="round" stroke-linejoin="round"/>
</svg>
