<svg width="310" height="99" viewBox="0 0 310 99" fill="none" xmlns="http://www.w3.org/2000/svg">
<g clip-path="url(#clip0)">
<path d="M23.5247 5.13706L188.966 10.9565L287.218 5.73917L308.392 21.1733L301.031 48.4358L306.738 81.1834L296.512 91.3018L215.93 95.4119L115.338 96.2798C109.233 89.8556 103.627 84.1349 102.974 83.9081C101.344 83.4595 66.1034 91.9553 66.1034 91.9553L33.7496 87.9585L27.7606 78.5689L26.3853 52.9846L6.83255 47.8385C6.83255 47.8385 5.02423 36.0123 4.51894 34.8348C4.35113 34.4817 2.52943 32.1394 0.373965 29.2096L0.475147 14.9826L23.5247 5.13706Z" fill="#DB1C8B"/>
<g opacity="0.45">
<g opacity="0.45">
<path opacity="0.45" d="M0.831867 16.9934L0.696883 29.0872L0.831867 16.9934Z" fill="white"/>
</g>
</g>
<path d="M0.798391 14.86L24.0102 5.01192L189.289 10.8339L287.541 5.61657L308.716 21.0507L301.355 48.3132L307.061 81.0608L296.833 91.0606L296.024 91.1919L301.935 85.2904L297.549 53.9446L289.141 55.8548L296.648 48.2686L303.589 25.2803L282.415 9.84615L188.864 14.7526L188.14 20.3356L184.65 15.0559L184.163 15.0635L18.8841 9.2415L0.831882 16.9933L0.798391 14.86Z" fill="white"/>
<path d="M0.508423 27.4304C4.1016 28.9151 7.86072 30.6343 8.03225 31.2243C8.37531 32.4044 8.76639 46.9794 8.76639 46.9794L28.8806 46.545L32.0113 49.5781L32.4188 75.5332L52.2194 86.1285L77.5435 86.7979L101.768 79.4234C107.662 82.7687 120.088 88.738 120.088 88.738L165.185 87.9114L217.429 87.5654L226.287 83.2773L228.625 87.5082L300.825 86.9675L299.867 87.9309L296.188 91.3079L215.93 95.413L115.338 96.2809L99.3228 89.064L65.781 92.08L33.4272 88.0832L27.6041 78.928L26.2307 53.4623L26.0685 53.4648L26.0629 53.1093L6.99678 47.9555C6.63884 45.8273 5.19404 36.4849 4.85098 35.3048C4.85098 35.3048 4.84912 35.1863 4.68503 35.0703C4.68317 34.9518 4.68131 34.8333 4.68131 34.8333C4.5135 34.4803 2.85588 32.2539 0.70228 29.4427L0.508423 27.4304Z" fill="#82027E"/>
</g>
<defs>
<clipPath id="clip0">
<rect width="308.431" height="93.4025" fill="white" transform="translate(0 5.38892) rotate(-0.899414)"/>
</clipPath>
</defs>
</svg>
