<svg width="507" height="102" viewBox="0 0 507 102" fill="none" xmlns="http://www.w3.org/2000/svg">
<g clip-path="url(#clip0)">
<path d="M468.42 7.44829L197.316 11.6089L36.2255 5.40507L1.67439 20.6292L14.0125 47.9699L4.98763 80.6653L21.8503 90.8879L153.968 95.8071L318.85 97.6843C328.791 91.3204 337.924 85.655 338.991 85.4347C341.658 85.0024 399.504 93.853 399.504 93.853L452.492 90.1802L462.214 80.8492L464.212 55.2747L496.208 50.3239C496.208 50.3239 499.053 38.514 499.869 37.3413C500.141 36.9899 503.103 34.6655 506.607 31.7569L506.298 17.5266L468.42 7.44829Z" fill="#DB1C8B"/>
<g opacity="0.45">
<g opacity="0.45">
<path opacity="0.45" d="M505.734 19.534L506.076 31.631L505.734 19.534Z" fill="white"/>
</g>
</g>
<path d="M505.767 17.4007L467.623 7.31821L196.785 11.483L35.6944 5.27917L1.14323 20.5033L13.4814 47.844L4.45652 80.5394L21.321 90.6435L22.6487 90.7829L12.9009 84.8211L19.776 53.5144L33.5759 55.5093L21.1949 47.8465L9.58759 24.785L44.1388 9.56084L197.521 15.4066L198.763 20.9978L204.431 15.7522L205.229 15.7647L476.068 11.5999L505.734 19.534L505.767 17.4007Z" fill="white"/>
<path d="M506.369 29.976C500.494 31.4248 494.35 33.1066 494.075 33.695C493.524 34.8718 493.03 49.4451 493.03 49.4451L460.057 48.809L454.956 51.8111L454.549 77.7662L422.201 88.1645L380.701 88.5799L340.923 80.9612C331.296 84.2479 310.989 90.0935 310.989 90.0935L237.065 88.8144L151.431 87.9443L136.871 83.5666L133.081 87.7747L14.7371 86.5096L16.3177 87.4827L22.3818 90.8972L153.968 95.8081L318.849 97.6853L345.027 90.6279L400.033 93.9809L453.022 90.308L462.475 81.2099L464.47 55.7539L464.736 55.7581L464.742 55.4025L495.94 50.4392C496.505 48.3142 498.779 38.9848 499.33 37.808C499.33 37.808 499.332 37.6895 499.6 37.5752C499.601 37.4567 499.603 37.3381 499.603 37.3381C499.875 36.9868 502.569 34.7767 506.071 31.9866L506.369 29.976Z" fill="#82027E"/>
</g>
<defs>
<clipPath id="clip0">
<rect width="505.577" height="93.4025" fill="white" transform="matrix(-0.999877 -0.0156971 -0.0156971 0.999877 506.981 7.93608)"/>
</clipPath>
</defs>
</svg>
