<svg width="58" height="58" viewBox="0 0 58 58" fill="none" xmlns="http://www.w3.org/2000/svg">
<circle cx="29" cy="29" r="29" fill="#7AC916"/>
<circle cx="29" cy="29" r="25" stroke="white" stroke-dasharray="3 3"/>
<path d="M28.8885 34.776C31.6085 31.352 36.5685 26.936 36.5685 22.488C36.5685 18.424 33.4005 15.832 29.4645 15.832C25.5285 15.832 21.9445 19.064 21.9445 23.096C21.9445 24.344 22.7445 25.432 24.2805 25.432C27.3525 25.432 25.5925 20.248 29.2725 20.248C30.5845 20.248 31.5765 21.4 31.5765 22.712C31.5765 23.864 31.0325 24.856 30.4565 25.688C28.0245 29.208 25.1445 32.088 22.4885 35.256C22.1685 35.64 21.7525 36.216 21.7525 36.888C21.7525 38.36 22.8405 39 24.2485 39H34.9365C36.1525 39 37.2405 38.36 37.2405 36.888C37.2405 35.416 36.1525 34.776 34.7445 34.776H28.8885Z" fill="#14592D"/>
</svg>
