<svg width="29" height="29" viewBox="0 0 29 29" fill="none" xmlns="http://www.w3.org/2000/svg">
<circle cx="14.5" cy="14.5" r="13.5" fill="#2FBBE5" stroke="white" stroke-width="2"/>
<path d="M12.6645 18.896C12.6645 18.5013 12.8032 18.1653 13.0805 17.888C13.3685 17.6107 13.7098 17.472 14.1045 17.472C14.4992 17.472 14.8352 17.6107 15.1125 17.888C15.3898 18.1653 15.5285 18.5013 15.5285 18.896C15.5285 19.2907 15.3898 19.632 15.1125 19.92C14.8352 20.208 14.4992 20.352 14.1045 20.352C13.7098 20.352 13.3685 20.208 13.0805 19.92C12.8032 19.632 12.6645 19.2907 12.6645 18.896ZM12.8405 15.312L12.8405 14.288C12.8405 13.9893 12.8832 13.76 12.9685 13.6C13.0752 13.3973 13.3525 13.232 13.8005 13.104C14.3765 12.944 14.7445 12.8107 14.9045 12.704C15.2672 12.4693 15.4485 12.096 15.4485 11.584C15.4485 11.264 15.3365 11.008 15.1125 10.816C14.8992 10.6133 14.6272 10.512 14.2965 10.512C13.7845 10.512 13.2672 10.7893 12.7445 11.344C12.2218 11.8987 11.7952 12.176 11.4645 12.176C11.1445 12.176 10.8832 12.0587 10.6805 11.824C10.4885 11.5787 10.3925 11.296 10.3925 10.976C10.3925 10.3787 10.6432 9.82933 11.1445 9.328C11.5712 8.90133 12.0992 8.56533 12.7285 8.32C13.2085 8.13867 13.7312 8.048 14.2965 8.048C15.3952 8.048 16.3232 8.37867 17.0805 9.04C17.8592 9.73333 18.2485 10.624 18.2485 11.712C18.2485 12.608 17.9872 13.3653 17.4645 13.984C16.9525 14.6027 16.2538 14.992 15.3685 15.152C15.3685 16.2613 14.9418 16.816 14.0885 16.816C13.2565 16.816 12.8405 16.3147 12.8405 15.312Z" fill="white"/>
</svg>
